<mxfile host="app.diagrams.net" agent="Mozilla/5.0 (Windows NT 10.0; Win64; x64) AppleWebKit/537.36 (KHTML, like Gecko) Chrome/130.0.0.0 Safari/537.36" version="24.8.3">
  <diagram name="Página-1" id="ombf87c2XGmOFEkaWm4z">
    <mxGraphModel dx="2049" dy="1114" grid="1" gridSize="10" guides="1" tooltips="1" connect="1" arrows="1" fold="1" page="1" pageScale="1" pageWidth="827" pageHeight="1169" math="0" shadow="0">
      <root>
        <mxCell id="0" />
        <mxCell id="1" parent="0" />
        <mxCell id="8bIiZCJQUQtxpXAoC0dx-25" style="edgeStyle=orthogonalEdgeStyle;rounded=0;orthogonalLoop=1;jettySize=auto;html=1;exitX=0;exitY=0.5;exitDx=0;exitDy=0;entryX=1;entryY=0.5;entryDx=0;entryDy=0;" edge="1" parent="1" source="8bIiZCJQUQtxpXAoC0dx-1" target="8bIiZCJQUQtxpXAoC0dx-24">
          <mxGeometry relative="1" as="geometry" />
        </mxCell>
        <mxCell id="8bIiZCJQUQtxpXAoC0dx-1" value="inicio" style="ellipse;whiteSpace=wrap;html=1;aspect=fixed;" vertex="1" parent="1">
          <mxGeometry x="670" y="20" width="80" height="80" as="geometry" />
        </mxCell>
        <mxCell id="8bIiZCJQUQtxpXAoC0dx-19" style="edgeStyle=orthogonalEdgeStyle;rounded=0;orthogonalLoop=1;jettySize=auto;html=1;exitX=0.5;exitY=1;exitDx=0;exitDy=0;entryX=0.5;entryY=0;entryDx=0;entryDy=0;" edge="1" parent="1" source="8bIiZCJQUQtxpXAoC0dx-3" target="8bIiZCJQUQtxpXAoC0dx-16">
          <mxGeometry relative="1" as="geometry" />
        </mxCell>
        <mxCell id="8bIiZCJQUQtxpXAoC0dx-3" value="nome completo" style="rounded=0;whiteSpace=wrap;html=1;" vertex="1" parent="1">
          <mxGeometry x="100" y="180" width="120" height="30" as="geometry" />
        </mxCell>
        <mxCell id="8bIiZCJQUQtxpXAoC0dx-4" value="usuario" style="rounded=0;whiteSpace=wrap;html=1;" vertex="1" parent="1">
          <mxGeometry x="100" y="90" width="120" height="30" as="geometry" />
        </mxCell>
        <mxCell id="8bIiZCJQUQtxpXAoC0dx-5" value="senha" style="rounded=0;whiteSpace=wrap;html=1;" vertex="1" parent="1">
          <mxGeometry x="100" y="120" width="120" height="30" as="geometry" />
        </mxCell>
        <mxCell id="8bIiZCJQUQtxpXAoC0dx-6" value="turma" style="rounded=0;whiteSpace=wrap;html=1;" vertex="1" parent="1">
          <mxGeometry x="100" y="150" width="120" height="30" as="geometry" />
        </mxCell>
        <mxCell id="8bIiZCJQUQtxpXAoC0dx-7" style="edgeStyle=orthogonalEdgeStyle;rounded=0;orthogonalLoop=1;jettySize=auto;html=1;exitX=0.5;exitY=1;exitDx=0;exitDy=0;" edge="1" parent="1" source="8bIiZCJQUQtxpXAoC0dx-3" target="8bIiZCJQUQtxpXAoC0dx-3">
          <mxGeometry relative="1" as="geometry" />
        </mxCell>
        <mxCell id="8bIiZCJQUQtxpXAoC0dx-8" value="cadastro" style="rounded=1;whiteSpace=wrap;html=1;" vertex="1" parent="1">
          <mxGeometry x="100" y="30" width="120" height="60" as="geometry" />
        </mxCell>
        <mxCell id="8bIiZCJQUQtxpXAoC0dx-21" style="edgeStyle=orthogonalEdgeStyle;rounded=0;orthogonalLoop=1;jettySize=auto;html=1;exitX=1;exitY=0.5;exitDx=0;exitDy=0;entryX=0.5;entryY=0;entryDx=0;entryDy=0;" edge="1" parent="1" source="8bIiZCJQUQtxpXAoC0dx-9" target="8bIiZCJQUQtxpXAoC0dx-18">
          <mxGeometry relative="1" as="geometry" />
        </mxCell>
        <mxCell id="8bIiZCJQUQtxpXAoC0dx-33" value="&lt;font style=&quot;font-size: 13px;&quot;&gt;sim&lt;/font&gt;" style="edgeLabel;html=1;align=center;verticalAlign=middle;resizable=0;points=[];" vertex="1" connectable="0" parent="8bIiZCJQUQtxpXAoC0dx-21">
          <mxGeometry x="-0.1586" y="-1" relative="1" as="geometry">
            <mxPoint as="offset" />
          </mxGeometry>
        </mxCell>
        <mxCell id="8bIiZCJQUQtxpXAoC0dx-9" value="tomada de decisão&lt;div&gt;validação&lt;/div&gt;" style="rhombus;whiteSpace=wrap;html=1;" vertex="1" parent="1">
          <mxGeometry x="260" y="485" width="120" height="100" as="geometry" />
        </mxCell>
        <mxCell id="8bIiZCJQUQtxpXAoC0dx-12" value="verificar se o usuário já existe&amp;nbsp;" style="rounded=0;whiteSpace=wrap;html=1;" vertex="1" parent="1">
          <mxGeometry x="100" y="340" width="120" height="60" as="geometry" />
        </mxCell>
        <mxCell id="8bIiZCJQUQtxpXAoC0dx-20" style="edgeStyle=orthogonalEdgeStyle;rounded=0;orthogonalLoop=1;jettySize=auto;html=1;exitX=1;exitY=0.5;exitDx=0;exitDy=0;" edge="1" parent="1" source="8bIiZCJQUQtxpXAoC0dx-14">
          <mxGeometry relative="1" as="geometry">
            <mxPoint x="320" y="480" as="targetPoint" />
          </mxGeometry>
        </mxCell>
        <mxCell id="8bIiZCJQUQtxpXAoC0dx-14" value="senha deve ter entre entre 6 e 10 sendo no mínimo um numérico" style="rounded=0;whiteSpace=wrap;html=1;" vertex="1" parent="1">
          <mxGeometry x="100" y="400" width="120" height="60" as="geometry" />
        </mxCell>
        <mxCell id="8bIiZCJQUQtxpXAoC0dx-16" value="validaçao de dados" style="rounded=0;whiteSpace=wrap;html=1;" vertex="1" parent="1">
          <mxGeometry x="100" y="280" width="120" height="60" as="geometry" />
        </mxCell>
        <mxCell id="8bIiZCJQUQtxpXAoC0dx-18" value="realizar cadastro" style="rounded=0;whiteSpace=wrap;html=1;" vertex="1" parent="1">
          <mxGeometry x="380" y="620" width="120" height="60" as="geometry" />
        </mxCell>
        <mxCell id="8bIiZCJQUQtxpXAoC0dx-23" value="informar o usuário&amp;nbsp;&lt;div&gt;que o cadastro foi realizado e volta para tela de login&lt;/div&gt;" style="rounded=0;whiteSpace=wrap;html=1;" vertex="1" parent="1">
          <mxGeometry x="380" y="680" width="120" height="60" as="geometry" />
        </mxCell>
        <mxCell id="8bIiZCJQUQtxpXAoC0dx-27" value="" style="edgeStyle=orthogonalEdgeStyle;rounded=0;orthogonalLoop=1;jettySize=auto;html=1;" edge="1" parent="1" source="8bIiZCJQUQtxpXAoC0dx-24" target="8bIiZCJQUQtxpXAoC0dx-26">
          <mxGeometry relative="1" as="geometry" />
        </mxCell>
        <mxCell id="8bIiZCJQUQtxpXAoC0dx-24" value="tela de login" style="rounded=0;whiteSpace=wrap;html=1;" vertex="1" parent="1">
          <mxGeometry x="490" y="30" width="120" height="60" as="geometry" />
        </mxCell>
        <mxCell id="8bIiZCJQUQtxpXAoC0dx-30" value="" style="edgeStyle=orthogonalEdgeStyle;rounded=0;orthogonalLoop=1;jettySize=auto;html=1;" edge="1" parent="1" source="8bIiZCJQUQtxpXAoC0dx-26" target="8bIiZCJQUQtxpXAoC0dx-29">
          <mxGeometry relative="1" as="geometry" />
        </mxCell>
        <mxCell id="8bIiZCJQUQtxpXAoC0dx-31" style="edgeStyle=orthogonalEdgeStyle;rounded=0;orthogonalLoop=1;jettySize=auto;html=1;exitX=0;exitY=0.5;exitDx=0;exitDy=0;entryX=1;entryY=0.5;entryDx=0;entryDy=0;" edge="1" parent="1" source="8bIiZCJQUQtxpXAoC0dx-26" target="8bIiZCJQUQtxpXAoC0dx-8">
          <mxGeometry relative="1" as="geometry" />
        </mxCell>
        <mxCell id="8bIiZCJQUQtxpXAoC0dx-26" value="tem login?" style="rhombus;whiteSpace=wrap;html=1;rounded=0;" vertex="1" parent="1">
          <mxGeometry x="334" y="20" width="80" height="80" as="geometry" />
        </mxCell>
        <mxCell id="8bIiZCJQUQtxpXAoC0dx-29" value="acessar sistema" style="whiteSpace=wrap;html=1;rounded=0;" vertex="1" parent="1">
          <mxGeometry x="314" y="135" width="120" height="60" as="geometry" />
        </mxCell>
        <mxCell id="8bIiZCJQUQtxpXAoC0dx-35" value="" style="edgeStyle=orthogonalEdgeStyle;rounded=0;orthogonalLoop=1;jettySize=auto;html=1;exitX=0;exitY=0.5;exitDx=0;exitDy=0;entryX=0.5;entryY=0;entryDx=0;entryDy=0;" edge="1" parent="1" source="8bIiZCJQUQtxpXAoC0dx-9" target="8bIiZCJQUQtxpXAoC0dx-34">
          <mxGeometry relative="1" as="geometry">
            <mxPoint x="260" y="535" as="sourcePoint" />
            <mxPoint x="200" y="680" as="targetPoint" />
          </mxGeometry>
        </mxCell>
        <mxCell id="8bIiZCJQUQtxpXAoC0dx-36" value="&lt;font style=&quot;font-size: 13px;&quot;&gt;não&lt;/font&gt;" style="edgeLabel;html=1;align=center;verticalAlign=middle;resizable=0;points=[];" vertex="1" connectable="0" parent="8bIiZCJQUQtxpXAoC0dx-35">
          <mxGeometry x="-0.1921" y="1" relative="1" as="geometry">
            <mxPoint as="offset" />
          </mxGeometry>
        </mxCell>
        <mxCell id="8bIiZCJQUQtxpXAoC0dx-38" value="" style="edgeStyle=orthogonalEdgeStyle;rounded=0;orthogonalLoop=1;jettySize=auto;html=1;" edge="1" parent="1" source="8bIiZCJQUQtxpXAoC0dx-34" target="8bIiZCJQUQtxpXAoC0dx-37">
          <mxGeometry relative="1" as="geometry" />
        </mxCell>
        <mxCell id="8bIiZCJQUQtxpXAoC0dx-34" value="usuário já cadastrado&lt;div&gt;no sistema&amp;nbsp;&lt;/div&gt;" style="rounded=0;whiteSpace=wrap;html=1;" vertex="1" parent="1">
          <mxGeometry x="140" y="620" width="120" height="60" as="geometry" />
        </mxCell>
        <mxCell id="8bIiZCJQUQtxpXAoC0dx-40" value="" style="edgeStyle=orthogonalEdgeStyle;rounded=0;orthogonalLoop=1;jettySize=auto;html=1;" edge="1" parent="1" source="8bIiZCJQUQtxpXAoC0dx-37" target="8bIiZCJQUQtxpXAoC0dx-39">
          <mxGeometry relative="1" as="geometry" />
        </mxCell>
        <mxCell id="8bIiZCJQUQtxpXAoC0dx-37" value="senha não atende aos parâmetros&amp;nbsp;" style="whiteSpace=wrap;html=1;rounded=0;" vertex="1" parent="1">
          <mxGeometry x="140" y="680" width="120" height="60" as="geometry" />
        </mxCell>
        <mxCell id="8bIiZCJQUQtxpXAoC0dx-39" value="volta para a tela de cadastro&amp;nbsp;" style="whiteSpace=wrap;html=1;rounded=0;" vertex="1" parent="1">
          <mxGeometry x="140" y="770" width="120" height="60" as="geometry" />
        </mxCell>
      </root>
    </mxGraphModel>
  </diagram>
</mxfile>
